<?xml version="1.0" encoding="UTF-8"?>
<svg width="32" height="32" viewBox="0 0 32 32" xmlns="http://www.w3.org/2000/svg">
  <path fill="#000000" d="M26.8 13.2c-1.3-1.3-3-2-4.8-2s-3.5.7-4.8 2c-1.3 1.3-2 3-2 4.8s.7 3.5 2 4.8c1.3 1.3 3 2 4.8 2s3.5-.7 4.8-2c1.3-1.3 2-3 2-4.8s-.7-3.5-2-4.8zM14.8 9.2c-.9-.9-2.1-1.4-3.4-1.4s-2.5.5-3.4 1.4c-.9.9-1.4 2.1-1.4 3.4s.5 2.5 1.4 3.4c.9.9 2.1 1.4 3.4 1.4s2.5-.5 3.4-1.4c.9-.9 1.4-2.1 1.4-3.4s-.5-2.5-1.4-3.4zM24.2 5.2c-.7-.7-1.6-1-2.6-1s-1.9.4-2.6 1c-.7.7-1 1.6-1 2.6s.4 1.9 1 2.6c.7.7 1.6 1 2.6 1s1.9-.4 2.6-1c.7-.7 1-1.6 1-2.6s-.4-1.9-1-2.6zM13 5.2c-.7-.7-1.6-1-2.6-1s-1.9.4-2.6 1c-.7.7-1 1.6-1 2.6s.4 1.9 1 2.6c.7.7 1.6 1 2.6 1s1.9-.4 2.6-1c.7-.7 1-1.6 1-2.6s-.4-1.9-1-2.6z"/>
</svg> 